{"title":"How.Old.Are.You.2014.Malayalam.DVD.Rip.x264.Team.TMR-N3kr4","uid":10937806,"size":731626141,"categoryP":"video","categoryS":"hd___movies","magnet":"?xt=urn:btih:ce6f23f9e03377f38b1348616002241d67702ba7&amp;dn=How.Old.Are.You.2014.Malayalam.DVD.Rip.x264.Team.TMR-N3kr4&amp;tr=udp%3A%2F%2Ftracker.openbittorrent.com%3A80&amp;tr=udp%3A%2F%2Fopen.demonii.com%3A1337&amp;tr=udp%3A%2F%2Ftracker.coppersurfer.tk%3A6969&amp;tr=udp%3A%2F%2Fexodus.desync.com%3A6969","seeders":4,"leechers":3,"uploader":"Falcon.G13","files":1,"time":1409452615,"description":"Video: MPEG4 Video (H264) 696x288 23.976fps 579kbps [V: Track1 (h264 high L4.1, yuv420p, 696x288, 579 kb/s)]\nAudio: AAC 48000Hz 6ch 111kbps [A: Track1 [msa] (aac, 48000 Hz, 5.1, 111 kb/s)]\nSubtitle: UTF-8 [S: English [msa] (tx3g)]\nSubtitle: UTF-8 [S: No subtitles]\n\n\nHow Old Are You? (2014)\n122 min - Drama - 16 May 2014 (India)\n7.4 Your rating: -/10 Ratings: 7.4/10 from 146 users \nReviews: 5 user\nA lady rediscovers her lost charisma for the good of the society overcoming strong odds from a patriarchal society.\n &lt;a href=&quot;\nhttp://i.imgur.com/PYDgZ8i.jpg&quot; rel=&quot;nofollow&quot; target=&quot;_NEW&quot;&gt;\nhttp://i.imgur.com/PYDgZ8i.jpg&lt;/a&gt; &lt;a href=&quot;\nhttp://i.imgur.com/RpffwtI.jpg&quot; rel=&quot;nofollow&quot; target=&quot;_NEW&quot;&gt;\nhttp://i.imgur.com/RpffwtI.jpg&lt;/a&gt; &lt;a href=&quot;\nhttp://i.imgur.com/TSrNLR3.jpg&quot; rel=&quot;nofollow&quot; target=&quot;_NEW&quot;&gt;\nhttp://i.imgur.com/TSrNLR3.jpg&lt;/a&gt; &lt;a href=&quot;\nhttp://i.imgur.com/wDHKrJe.jpg&quot; rel=&quot;nofollow&quot; target=&quot;_NEW&quot;&gt;\nhttp://i.imgur.com/wDHKrJe.jpg&lt;/a&gt; &lt;a href=&quot;\nhttp://i.imgur.com/zbiUYzG.jpg&quot; rel=&quot;nofollow&quot; target=&quot;_NEW&quot;&gt;\nhttp://i.imgur.com/zbiUYzG.jpg&lt;/a&gt; &lt;a href=&quot;\nhttp://i.imgur.com/Mg85rqW.jpg&quot; rel=&quot;nofollow&quot; target=&quot;_NEW&quot;&gt;\nhttp://i.imgur.com/Mg85rqW.jpg&lt;/a&gt; &lt;a href=&quot;\nhttp://i.imgur.com/FQRIJ9C.jpg&quot; rel=&quot;nofollow&quot; target=&quot;_NEW&quot;&gt;\nhttp://i.imgur.com/FQRIJ9C.jpg&lt;/a&gt;\n\nGeneral\nComplete name : How.Old.Are.You.2014.Malayalam.DVD.Rip.x264.Team.TMR-N3kr4.mp4\nFormat : MPEG-4\nFormat profile : Base Media\nCodec ID : isom\nFile size : 698 MiB\nDuration : 2h 20mn\nOverall bit rate mode : Variable\nOverall bit rate : 695 Kbps\nEncoded date : UTC 2014-08-28 22:53:49\nTagged date : UTC 2014-08-28 22:53:49\n\nVideo\nID : 1\nFormat : AVC\nFormat/Info : Advanced Video Codec\nFormat profile : &lt;a class=&quot;__cf_email__&quot; href=&quot;/cdn-cgi/l/email-protection&quot; data-cfemail=&quot;a2eacbc5cae2ee968c93&quot;&gt;[email&amp;#160;protected]&lt;/a&gt;&lt;script cf-hash='f9e31' type=&quot;text/javascript&quot;&gt;\n/* &lt;![CDATA[ */!function(){try{var t=&quot;currentScript&quot;in document?document.currentScript:function(){for(var t=document.getElementsByTagName(&quot;script&quot;),e=t.length;e--;)if(t[e].getAttribute(&quot;cf-hash&quot;))return t[e]}();if(t&amp;&amp;t.previousSibling){var e,r,n,i,c=t.previousSibling,a=c.getAttribute(&quot;data-cfemail&quot;);if(a){for(e=&quot;&quot;,r=parseInt(a.substr(0,2),16),n=2;a.length-n;n+=2)i=parseInt(a.substr(n,2),16)^r,e+=String.fromCharCode(i);e=document.createTextNode(e),c.parentNode.replaceChild(e,c)}}}catch(u){}}();/* ]]&gt; */&lt;/script&gt;\nFormat settings, CABAC : Yes\nFormat settings, ReFrames : 3 frames\nCodec ID : avc1\nCodec ID/Info : Advanced Video Coding\nDuration : 2h 20mn\nBit rate : 580 Kbps\nMaximum bit rate : 3 980 Kbps\nWidth : 696 pixels\nHeight : 288 pixels\nDisplay aspect ratio : 2.40:1\nFrame rate mode : Constant\nFrame rate : 23.976 fps\nColor space : YUV\nChroma subsampling : 4:2:0\nBit depth : 8 bits\nScan type : Progressive\nBits/(Pixel*Frame) : 0.121\nStream size : 582 MiB (83%)\nTitle : Track1\nWriting library : x264 core 142 r2431 ac76440\n\nAudio\nID : 2\nFormat : AAC\nFormat/Info : Advanced Audio Codec\nFormat profile : HE-AAC / LC\nCodec ID : 40\nDuration : 2h 20mn\nBit rate mode : Variable\nBit rate : 112 Kbps\nMaximum bit rate : 131 Kbps\nChannel(s) : 6 channels\nChannel positions : Front: L C R, Side: L R, LFE\nSampling rate : 48.0 KHz / 24.0 KHz\nCompression mode : Lossy\nStream size : 112 MiB (16%)\nTitle : Track1\nLanguage : Malay\nEncoded date : UTC 2014-08-28 22:32:28\nTagged date : UTC 2014-08-28 22:54:18\n\nText\nID : 3\nFormat : Timed Text\nCodec ID : tx3g\nDuration : 2h 20mn\nBit rate mode : Variable\nBit rate : 75 bps\nStream size : 77.1 KiB (0%)\nTitle : English\nLanguage : Malay\nEncoded date : UTC 2014-08-28 22:54:18\nTagged date : UTC 2014-08-28 22:54:18","torrent":{"xt":"urn:btih:ce6f23f9e03377f38b1348616002241d67702ba7","amp;dn":"How.Old.Are.You.2014.Malayalam.DVD.Rip.x264.Team.TMR-N3kr4","amp;tr":["udp%3A%2F%2Ftracker.openbittorrent.com%3A80","udp%3A%2F%2Fopen.demonii.com%3A1337","udp%3A%2F%2Ftracker.coppersurfer.tk%3A6969","udp%3A%2F%2Fexodus.desync.com%3A6969"],"infoHash":"ce6f23f9e03377f38b1348616002241d67702ba7","infoHashBuffer":{"type":"Buffer","data":[206,111,35,249,224,51,119,243,139,19,72,97,96,2,36,29,103,112,43,167]},"announce":[],"urlList":[]}}